<?xml version="1.0" encoding="utf-8"?>
<!-- Generator: Adobe Illustrator 21.0.2, SVG Export Plug-In . SVG Version: 6.00 Build 0)  -->
<svg version="1.1" id="Layer_1" xmlns="http://www.w3.org/2000/svg" xmlns:xlink="http://www.w3.org/1999/xlink" x="0px" y="0px"
	 viewBox="0 0 215.7 94" style="enable-background:new 0 0 215.7 94;" xml:space="preserve">
<style type="text/css">
	.st0{fill:#FFFFFF;}
	.st1{fill:#6950A3;}
</style>
<g>
	<path class="st0" d="M0,93.2V0h17.3v77.2h39.5v16H0z"/>
	<path class="st0" d="M43.8,0h18.6l16.9,36.2L96.3,0h18.6L88,53.5v39.7H70.7V53.5L43.8,0z"/>
	<path class="st0" d="M118,93.2V0H152c15.8,0,26.6,8.1,26.6,25.2c0,7.6-3.3,14.1-9.2,17.2c8.9,3.6,14,10.9,14,22.8
		c0,18.2-11.6,28.1-30.8,28.1H118z M135.3,36.2h15.8c6.9,0,10.9-2.5,10.9-10.1S158.2,16,150.7,16h-15.4V36.2z M135.3,77.2h15.8
		c10.8,0,15-4.5,15-12.5s-4.3-12.5-15-12.5h-15.8V77.2z"/>
	<path class="st1" d="M204.5,25c6.4,0,11.2,4.8,11.2,11.2c0,6.4-4.8,11.2-11.2,11.2c-6.4,0-11.2-4.8-11.2-11.2
		C193.3,29.8,198.1,25,204.5,25z M204.5,71.6c6.4,0,11.2,4.8,11.2,11.2c0,6.4-4.8,11.2-11.2,11.2c-6.4,0-11.2-4.8-11.2-11.2
		C193.3,76.4,198.1,71.6,204.5,71.6z"/>
</g>
</svg>
